P2
100 100
255
115 156 181 147 153 165 156 153 136 77 101 102 144 164 112 104 97 100 96 112 117 117 117 119 120 117 129 162 174 141 68 57 94 126 112 123 135 125 126 121 124 148 156 171 174 177 179 181 192 189 160 175 172 151 141 175 160 154 158 153 142 160 200 216 186 124 126 121 138 156 186 192 183 169 136 115 86 122 159 137 132 152 179 215 191 193 212 218 238 244 221 214 217 208 153 108 86 75 71 66
117 146 145 144 154 153 148 155 114 79 107 114 170 177 136 101 106 106 103 116 117 124 127 129 129 148 162 172 169 117 76 72 119 113 114 136 155 152 143 138 151 166 170 174 174 176 179 182 198 176 124 146 150 149 159 154 139 148 151 157 174 167 186 214 196 184 173 154 160 172 174 181 180 164 136 109 109 120 124 129 143 136 160 180 143 160 203 226 245 243 226 213 197 139 89 95 76 81 80 81
116 132 118 149 157 141 159 162 96 99 117 127 180 147 138 116 106 100 101 124 142 156 152 153 158 169 172 172 160 114 82 69 121 115 130 147 169 162 141 158 166 168 171 174 176 178 171 162 177 142 144 173 172 173 136 109 161 165 148 143 153 165 172 194 201 193 189 187 182 183 180 171 153 164 157 120 112 128 125 120 118 124 126 145 165 179 209 242 247 240 219 170 117 75 81 88 104 104 79 65
130 125 142 164 152 143 166 151 87 114 118 161 184 128 131 112 108 107 123 133 151 159 157 166 171 172 172 173 152 109 80 79 124 122 142 153 163 149 142 171 170 169 171 173 178 177 129 115 150 122 173 192 184 178 115 124 171 185 186 169 154 156 146 163 176 175 180 186 187 184 184 180 163 151 165 154 137 143 137 120 119 145 151 163 190 206 230 247 234 218 192 133 86 96 110 116 133 109 92 98
137 137 159 159 146 150 171 147 103 138 138 191 174 133 130 131 134 132 151 145 156 162 162 167 170 173 171 168 116 95 63 86 126 126 148 147 160 142 158 174 172 172 172 170 151 142 96 126 173 151 179 190 177 160 133 162 179 177 180 177 172 164 148 164 125 123 148 171 177 179 186 173 166 150 157 177 161 160 156 148 154 189 181 153 188 223 246 240 208 163 155 131 98 101 121 77 38 45 80 90
144 150 161 164 151 154 170 148 139 162 169 214 177 146 147 151 149 167 173 164 170 172 173 172 174 178 175 156 88 88 64 118 134 144 156 147 158 148 169 174 175 175 171 127 55 66 64 149 178 172 191 190 178 168 167 171 179 173 146 131 143 181 197 195 130 101 112 132 141 157 151 131 125 124 141 157 155 168 170 178 194 208 158 138 201 239 245 223 191 159 161 145 120 136 121 66 17 30 62 41
138 156 164 150 136 165 165 123 158 186 207 220 186 163 164 166 175 195 180 176 174 174 177 175 179 177 175 148 112 79 77 137 139 156 160 160 156 158 170 174 171 144 117 40 31 91 103 182 181 179 188 184 173 188 185 176 178 168 129 131 145 154 181 191 181 139 112 109 128 149 153 149 133 134 118 99 108 133 172 195 202 195 165 166 207 243 245 201 102 110 122 114 101 125 94 44 42 58 30 19
148 164 162 143 146 166 129 92 157 186 204 205 181 177 175 174 188 195 185 185 176 177 173 170 178 176 173 137 106 63 108 160 155 163 164 161 161 151 140 165 138 86 79 22 107 191 188 206 190 189 190 186 180 189 184 180 182 170 144 159 176 166 135 127 148 144 134 129 139 154 155 162 173 171 131 126 123 125 164 178 159 149 144 141 195 235 229 159 77 116 123 119 122 111 89 57 89 87 55 46
163 166 149 146 161 158 97 118 169 189 206 195 180 187 182 180 183 183 188 183 176 178 173 171 181 176 161 118 85 67 151 170 165 170 165 159 168 108 79 137 121 129 87 73 181 222 219 213 192 194 201 199 188 183 180 180 183 182 180 177 180 177 148 129 123 133 139 133 162 164 141 141 154 141 113 136 138 136 159 157 140 143 151 157 208 217 177 100 79 132 152 160 163 138 98 89 122 101 72 60
163 156 144 153 166 137 99 155 174 182 193 184 181 187 182 184 181 179 188 179 177 176 173 181 187 177 142 104 79 74 152 171 169 173 169 168 156 71 95 152 158 133 95 143 203 220 230 211 193 198 203 198 188 178 178 180 184 186 184 179 177 175 165 183 180 139 127 143 175 169 147 136 133 106 103 106 102 109 144 162 135 138 165 192 221 200 114 54 49 66 100 123 111 95 92 92 118 110 102 53
163 155 160 166 162 121 134 172 173 149 133 151 173 185 187 191 187 186 187 177 175 172 174 188 183 157 110 97 95 109 158 172 169 172 171 172 129 81 147 166 165 134 137 174 186 203 222 204 191 191 197 197 190 180 182 185 190 185 178 176 175 178 183 192 186 177 158 158 152 154 162 167 156 134 128 117 117 107 146 196 157 140 171 220 238 198 72 40 36 41 72 76 43 47 77 114 152 159 149 80
157 158 160 150 145 120 149 172 177 142 115 151 173 178 183 193 200 200 187 177 172 171 180 200 168 104 97 124 147 156 161 162 162 169 173 164 111 112 167 171 159 142 168 183 178 202 217 205 200 205 200 198 192 198 211 201 190 182 175 174 187 187 184 173 175 176 166 176 175 182 188 206 192 166 139 130 136 134 182 179 120 83 125 218 240 198 114 52 29 41 87 75 20 26 64 153 176 156 170 121
148 158 122 83 106 117 141 150 156 119 124 166 183 177 184 192 195 198 181 180 175 179 190 190 134 119 106 120 143 124 107 99 100 136 177 148 109 135 173 171 145 146 169 175 182 220 222 204 202 205 194 188 203 221 227 206 190 178 158 162 180 172 166 148 151 142 148 185 192 192 212 217 165 146 144 147 150 166 195 182 127 116 164 204 181 174 140 71 43 48 60 27 5 11 59 128 92 111 158 128
143 122 90 92 132 144 159 160 147 116 146 181 194 182 186 189 196 193 181 183 182 188 179 156 105 94 63 88 102 78 116 139 142 163 182 157 128 148 173 172 157 166 178 180 197 229 193 160 174 186 186 172 198 214 193 146 143 131 136 176 180 174 170 161 170 178 161 161 189 196 228 214 153 109 113 121 151 159 140 166 162 161 211 186 117 93 88 105 110 97 81 52 49 64 72 104 101 133 126 123
135 143 150 189 181 162 173 168 157 138 159 181 194 182 185 185 194 187 183 171 167 179 174 134 102 64 61 100 99 109 162 178 176 182 176 149 152 162 178 177 158 169 178 180 204 204 111 104 148 166 177 152 150 158 144 89 75 79 141 164 165 152 151 181 204 222 213 166 160 191 215 216 173 104 99 113 166 158 132 173 176 190 234 187 144 111 134 152 141 117 131 115 117 127 121 124 126 161 116 101
152 168 174 183 157 165 175 165 153 144 163 177 194 182 185 184 173 152 164 165 155 163 144 95 95 69 80 107 131 161 174 176 175 184 179 161 177 176 183 173 129 107 122 168 201 140 44 63 90 118 139 126 145 167 146 133 130 149 162 112 115 125 134 173 195 198 219 190 165 165 151 158 162 126 135 169 195 160 130 182 183 214 220 163 133 110 142 164 143 140 154 140 124 141 138 118 102 133 95 48
137 152 172 175 141 167 178 169 155 153 174 183 187 185 181 177 148 125 155 158 159 163 112 114 102 75 83 106 146 172 177 179 181 194 186 178 173 175 168 135 106 88 120 170 179 96 82 116 99 70 47 63 115 165 135 127 161 178 163 110 115 132 148 165 133 148 178 195 160 101 73 65 74 100 136 189 195 177 167 174 187 204 165 125 118 68 82 98 75 94 153 167 123 130 89 60 80 124 122 83
153 164 169 162 147 173 176 168 162 166 177 177 177 182 178 169 151 158 178 145 149 149 108 118 103 104 108 111 150 154 140 137 164 193 176 127 70 89 130 141 124 131 160 192 176 93 113 157 146 70 46 37 47 101 98 66 79 89 90 92 131 144 135 126 88 106 127 163 132 81 66 37 33 74 128 190 187 187 183 181 200 178 137 127 146 144 140 92 71 78 97 104 105 104 64 93 97 136 141 114
161 167 169 159 167 179 171 166 163 169 176 167 148 158 178 170 166 169 153 142 159 130 91 95 120 122 93 66 94 63 46 56 124 149 128 81 68 72 113 147 118 115 127 172 164 107 136 162 122 85 84 65 104 140 125 82 35 36 64 115 130 138 156 136 103 100 77 79 78 85 73 83 127 166 204 207 186 195 200 191 175 149 153 162 143 124 113 101 69 30 17 11 44 112 154 126 81 140 165 171
159 164 169 151 170 178 165 159 153 172 182 172 138 141 175 140 148 162 134 143 161 110 112 124 138 109 48 37 52 51 77 98 130 143 134 99 138 126 90 96 81 80 70 114 98 107 110 115 113 138 126 134 157 173 181 160 119 118 137 184 189 147 136 135 127 143 105 92 109 133 126 151 168 193 226 215 195 199 208 176 132 136 150 150 153 162 154 159 128 98 66 48 76 128 166 136 117 162 205 163
165 165 167 168 179 177 157 151 143 165 172 183 181 165 163 125 143 154 132 155 161 121 138 100 104 92 65 55 53 79 104 122 130 157 164 83 116 141 93 60 17 10 65 91 79 118 84 59 62 114 127 142 165 176 185 167 158 180 196 203 198 147 154 156 153 146 110 116 121 123 144 156 144 196 225 214 183 171 189 161 142 139 140 142 167 183 167 145 113 130 130 106 114 98 117 138 153 161 173 161
153 142 151 161 174 170 138 139 151 167 167 196 213 180 157 143 152 157 161 161 160 153 140 50 67 82 79 71 85 113 113 140 138 140 149 93 100 127 70 15 7 63 143 102 124 152 151 131 109 136 116 138 173 179 178 171 182 198 202 198 197 179 192 178 173 166 149 153 129 105 141 162 145 144 171 180 141 129 155 151 150 147 144 133 130 132 136 150 128 92 73 89 104 97 130 160 164 162 150 177
119 124 152 159 164 153 141 156 169 165 159 166 165 155 151 158 158 161 151 152 153 144 111 35 54 71 73 81 128 153 167 168 131 153 166 149 155 123 54 13 37 133 162 106 146 164 150 140 140 164 152 168 177 179 186 182 193 206 212 208 208 209 203 183 178 172 148 158 151 143 157 169 126 73 109 152 129 162 174 152 154 140 151 156 136 124 118 134 120 86 60 75 67 80 137 185 181 170 145 161
114 138 147 159 150 145 158 167 166 161 159 156 140 133 143 170 165 138 133 146 125 130 93 76 79 51 66 110 153 168 191 180 150 175 177 158 157 131 43 16 93 162 134 104 112 109 133 162 168 182 178 184 181 176 183 189 191 186 199 221 224 218 200 189 180 155 107 157 184 167 173 193 135 70 129 205 193 164 147 137 137 157 156 153 157 118 117 132 133 164 173 163 127 73 76 148 172 160 158 165
155 168 174 159 127 141 171 165 153 130 125 139 148 148 146 164 151 126 147 161 108 99 81 97 59 36 64 136 169 179 187 173 166 179 173 136 152 135 17 53 158 161 106 109 107 124 166 186 191 187 186 186 163 118 133 171 160 133 144 148 142 134 130 134 135 107 99 170 175 142 170 204 141 105 193 233 177 111 133 149 145 159 152 151 165 147 149 158 152 181 204 189 175 140 73 77 128 167 191 198
166 172 187 167 137 152 159 139 128 135 149 159 171 151 139 139 120 104 123 124 82 110 120 107 47 51 91 145 170 178 179 155 164 176 171 156 179 112 31 115 177 141 117 158 175 181 185 191 191 189 182 155 147 147 182 194 180 154 141 122 104 100 96 97 111 90 81 78 84 132 187 183 126 154 233 228 137 131 170 180 177 171 171 176 181 175 153 154 175 199 202 194 184 169 106 75 84 158 208 209
163 178 194 179 160 154 143 141 138 142 160 178 175 148 159 135 129 82 55 69 93 119 121 90 60 71 114 153 161 163 168 156 172 175 172 182 196 117 96 148 181 136 159 170 168 162 167 178 179 188 176 169 192 202 201 198 181 155 139 164 172 174 176 184 182 138 110 80 64 105 178 195 183 218 247 197 150 176 182 182 181 179 181 183 180 155 132 145 182 219 211 195 192 181 166 150 106 127 198 210
162 174 183 189 178 151 149 142 132 134 148 168 147 129 159 127 112 95 112 130 124 105 104 76 76 84 136 168 165 167 150 158 176 174 175 192 200 133 97 142 169 133 102 63 63 70 96 91 95 113 109 115 150 177 178 184 166 141 149 159 146 156 163 166 153 114 115 119 133 177 200 199 205 231 234 187 174 180 183 182 178 175 176 176 183 178 180 173 179 191 204 193 194 191 183 183 175 169 205 211
170 170 164 181 174 125 122 108 111 130 151 168 123 118 133 125 119 133 164 149 132 76 91 87 60 71 150 169 170 150 121 166 179 177 178 194 156 49 55 132 133 89 52 88 114 133 153 137 122 113 62 57 78 85 99 108 117 111 90 109 81 83 84 98 71 50 55 45 61 144 195 199 207 231 214 177 180 181 181 180 179 179 178 174 181 194 188 186 175 145 166 186 193 200 194 193 193 204 219 208
167 167 166 171 175 133 135 142 145 154 169 171 119 123 102 100 137 113 143 154 118 69 110 77 59 112 162 161 130 88 136 185 179 171 178 179 100 73 121 139 94 63 107 157 173 181 186 184 190 193 123 108 108 97 111 144 138 104 58 83 106 100 116 120 101 70 69 104 106 134 189 203 214 240 203 183 184 182 180 178 178 180 182 178 174 180 179 178 177 174 187 191 197 197 203 196 197 205 202 183
162 154 160 170 182 171 167 166 164 162 174 153 125 143 79 87 117 115 162 166 102 78 123 105 112 144 163 147 87 98 147 162 163 139 161 142 84 104 127 146 90 105 149 171 179 190 184 183 193 206 170 133 128 167 182 183 152 115 64 81 120 151 177 118 72 99 124 169 193 197 205 210 230 237 179 185 193 189 183 181 180 183 185 181 177 174 170 175 177 187 195 187 193 197 206 203 200 205 227 197
158 158 162 173 184 173 167 164 163 164 166 109 142 160 77 113 125 139 185 179 84 84 132 145 157 166 168 125 97 130 125 136 147 139 163 138 68 66 126 150 111 143 164 177 193 199 185 182 176 171 121 96 91 146 190 181 158 126 70 79 127 172 177 107 99 175 183 178 196 202 210 217 242 219 169 176 187 190 189 187 188 188 187 185 183 178 181 178 179 183 180 183 188 200 210 216 203 212 231 174
168 164 164 178 184 165 159 157 160 163 141 91 163 137 97 152 144 166 193 181 77 129 166 172 172 167 160 116 126 143 142 164 172 180 202 182 105 75 138 125 125 162 168 186 204 194 187 192 173 144 128 152 131 142 166 154 119 134 83 60 62 141 180 143 166 214 209 185 195 205 212 228 245 196 175 176 181 190 192 189 186 189 187 184 182 183 187 183 186 185 177 177 186 199 213 218 222 236 182 100
169 162 166 162 103 70 104 116 126 147 125 115 162 116 130 161 151 178 190 165 87 152 182 174 171 163 155 122 146 146 155 167 177 182 164 164 170 168 157 81 86 145 160 164 147 124 158 184 166 152 146 112 113 128 135 83 63 81 55 56 79 172 204 193 202 211 203 166 181 211 223 242 240 188 177 179 185 186 189 189 188 190 187 183 183 186 189 182 181 182 185 185 185 191 211 227 237 211 83 37
168 162 167 115 27 65 132 142 136 162 150 152 147 94 137 154 152 184 190 154 122 170 180 176 173 167 147 129 137 120 116 127 143 165 136 163 184 187 180 115 113 171 185 177 150 130 120 169 190 180 122 37 61 106 87 61 71 61 40 67 156 212 214 203 198 198 204 201 206 219 234 250 247 211 179 176 181 186 187 187 189 189 188 185 184 181 185 189 185 183 185 190 182 182 197 205 191 162 94 53
164 164 159 74 80 149 170 170 167 182 169 164 119 64 130 140 149 191 186 142 152 179 177 178 176 161 105 94 92 108 122 105 106 130 126 100 75 115 188 166 158 197 199 182 158 129 79 115 132 158 122 58 87 112 130 142 111 74 87 134 201 227 222 211 198 196 202 207 217 226 241 251 251 228 190 173 174 187 185 187 188 187 185 186 185 181 182 189 191 181 183 201 170 143 163 126 133 167 109 68
161 166 138 77 133 158 170 170 173 183 176 160 81 64 147 144 133 177 173 131 167 180 176 169 139 118 85 92 102 103 115 60 59 92 62 17 52 120 169 153 169 187 172 143 149 140 97 97 81 93 89 104 138 158 163 136 105 107 144 187 217 237 234 229 196 183 206 216 224 231 247 251 249 243 204 179 185 188 186 187 186 183 182 185 184 183 183 182 189 185 178 194 190 173 176 136 143 137 72 60
162 164 104 92 141 151 168 174 174 183 175 146 63 115 170 164 142 140 130 101 141 138 130 129 90 106 120 137 106 41 61 58 94 86 26 81 149 178 185 131 139 158 148 151 173 180 168 169 163 137 96 145 168 150 135 108 97 132 171 176 192 216 222 221 207 208 215 222 231 240 252 246 235 245 218 186 187 187 188 188 183 182 182 183 182 185 185 181 181 188 183 187 200 159 129 165 164 133 99 57
165 153 78 114 133 138 172 169 163 162 159 123 63 145 176 175 166 154 121 94 84 63 79 128 156 131 105 123 75 82 105 106 140 92 100 175 183 191 195 152 106 121 162 173 182 184 182 180 184 183 130 147 155 117 122 137 153 176 176 141 132 145 181 195 203 223 227 229 228 223 196 179 211 244 231 199 193 189 190 191 185 181 182 183 184 186 183 182 180 186 193 173 124 76 81 125 153 171 118 40
168 135 95 156 156 165 192 175 167 159 162 99 88 162 177 175 165 144 116 95 72 101 146 154 139 111 119 111 96 133 113 137 140 102 143 181 173 182 168 116 90 114 147 175 189 193 191 186 199 202 137 125 118 108 151 154 173 182 169 152 160 159 148 151 192 225 227 222 168 129 109 94 147 229 246 222 203 194 192 191 190 184 183 185 187 187 183 181 181 184 182 112 80 111 130 143 163 156 67 24
172 115 113 163 168 185 203 175 165 161 149 70 121 169 175 170 133 93 72 94 122 160 170 148 139 148 155 107 120 101 100 134 93 72 93 111 125 154 142 122 157 157 137 147 160 172 186 161 143 128 114 121 127 155 167 153 177 180 160 152 155 179 175 171 201 226 225 204 134 151 173 171 174 215 244 237 216 199 195 191 189 187 184 186 188 188 185 184 182 181 135 58 124 170 167 160 166 145 63 24
170 100 137 163 169 192 197 178 167 162 123 63 139 169 175 162 135 111 79 125 154 166 163 149 151 164 147 96 117 64 87 87 89 109 121 131 136 154 137 143 144 112 110 124 104 126 143 111 113 99 105 122 127 147 158 173 178 175 172 151 147 177 187 199 217 214 216 189 166 181 182 185 192 201 221 233 227 211 199 194 191 188 187 188 189 188 187 186 185 181 108 76 147 181 188 188 187 147 90 33
127 108 157 165 171 192 189 186 179 163 92 67 143 169 172 153 147 112 90 123 157 165 158 162 162 159 109 46 59 69 95 70 97 113 97 93 109 153 138 145 131 139 165 169 161 171 137 145 160 144 140 128 133 142 143 168 183 176 158 137 161 179 187 203 212 214 218 187 181 187 185 186 193 193 203 221 223 220 204 194 191 187 186 187 189 189 189 189 190 180 93 83 152 177 184 197 186 152 80 33
114 83 123 155 177 186 178 186 188 157 57 90 156 170 168 125 120 114 117 138 161 163 157 168 182 158 69 61 90 114 82 53 55 57 59 64 99 134 104 104 108 122 136 163 161 154 140 164 168 167 166 167 179 179 172 175 186 173 149 146 172 180 186 195 191 217 233 203 185 189 185 186 192 190 195 210 219 218 214 198 192 187 186 188 189 189 189 191 195 173 87 106 157 173 179 203 204 136 38 54
144 112 99 113 154 179 186 186 190 137 54 113 158 172 146 91 108 115 141 162 163 159 158 172 160 91 41 110 163 152 76 26 36 66 80 98 148 140 88 115 129 123 134 156 150 143 156 168 168 169 174 175 180 176 173 177 186 172 154 167 175 177 193 194 176 211 240 206 194 198 184 158 154 168 175 181 208 219 220 208 192 189 188 188 189 187 188 191 187 119 77 134 160 168 175 207 201 82 23 66
145 164 161 147 138 151 192 195 185 102 82 126 150 162 112 128 165 144 153 160 159 156 161 143 58 13 30 109 153 135 58 70 97 100 103 136 182 119 108 110 96 83 134 171 174 166 160 168 172 168 170 175 181 174 173 182 194 178 168 178 183 186 207 196 182 222 233 205 204 206 186 170 170 178 176 163 181 190 175 201 199 191 190 188 189 188 188 192 146 61 110 161 162 161 167 201 161 62 44 105
144 168 165 166 160 132 151 169 138 85 118 133 151 148 113 169 178 156 157 161 157 154 156 70 14 23 56 85 106 95 108 146 118 107 129 166 176 96 117 126 105 50 52 76 110 155 171 182 184 172 168 173 178 176 179 191 186 171 181 185 183 196 210 192 192 233 224 209 212 191 133 138 169 178 180 176 169 156 131 166 199 193 189 189 189 190 189 164 105 107 163 179 168 159 164 154 77 47 79 149
144 157 128 140 141 123 141 145 117 98 143 147 158 116 130 178 172 158 154 162 152 149 142 55 62 71 83 92 79 107 161 143 104 113 149 184 139 81 130 106 83 47 56 74 79 114 156 182 186 174 166 173 182 184 191 196 182 179 182 180 175 190 203 192 207 235 221 205 174 151 115 117 171 179 181 180 179 177 150 142 181 202 192 192 193 194 192 139 97 139 171 170 168 165 153 67 31 42 93 137
127 135 121 139 120 131 138 145 108 119 159 157 134 82 152 162 146 151 163 165 150 147 139 84 107 68 70 95 64 142 156 103 104 136 169 198 129 131 126 76 84 77 119 164 166 162 155 153 154 123 123 177 191 197 206 197 185 176 134 144 180 204 210 203 218 219 203 190 171 177 176 170 179 177 176 177 180 182 170 158 176 215 200 195 200 199 189 140 127 132 153 160 168 167 128 49 43 34 48 57
148 108 100 128 130 137 125 130 102 141 162 153 93 68 144 110 115 155 164 135 84 57 86 75 84 49 97 112 123 173 149 112 127 158 188 199 142 160 94 53 73 93 137 173 177 180 179 171 137 84 139 203 216 224 206 188 187 170 134 163 196 210 202 209 228 211 194 189 188 192 193 182 179 176 170 173 177 185 187 168 187 219 216 201 204 202 167 144 110 117 161 163 170 143 80 88 88 48 51 51
157 99 119 133 150 157 142 125 109 155 162 144 59 86 127 113 129 124 79 45 26 25 55 86 82 99 143 135 171 182 160 130 137 165 204 175 139 170 106 62 88 123 163 179 182 185 183 158 101 101 185 218 226 216 204 189 187 180 177 188 207 208 204 219 227 208 191 184 188 194 192 181 175 176 173 175 177 180 192 195 200 212 221 212 210 215 154 104 96 123 167 169 166 99 51 96 115 64 44 66
140 135 148 154 145 154 152 124 126 159 163 125 67 148 137 111 51 20 31 73 56 78 77 96 100 125 134 106 141 178 172 152 156 178 214 146 150 152 81 81 109 151 179 183 187 172 152 147 149 179 225 220 213 201 197 185 179 183 187 203 212 204 215 233 220 204 195 181 182 183 181 178 172 172 170 173 176 177 187 202 205 211 218 221 226 205 126 104 98 109 159 171 154 66 53 95 141 107 52 58
144 145 136 115 81 105 115 119 143 158 159 94 89 171 146 80 14 45 91 103 108 133 98 88 83 105 126 94 135 176 178 171 174 197 212 136 113 96 71 75 99 144 168 170 167 141 147 167 173 205 241 228 207 196 185 180 178 183 193 209 195 193 219 230 218 197 190 182 181 178 174 173 170 170 165 169 174 176 184 204 213 217 219 224 232 169 114 92 63 114 162 164 122 48 77 122 164 132 47 45
108 99 70 84 122 117 108 138 154 164 147 62 99 151 129 85 98 139 140 101 152 133 66 92 118 80 85 115 170 180 179 168 168 205 201 129 113 142 149 146 141 143 136 147 152 159 170 168 174 206 222 217 206 191 183 182 181 185 197 202 181 189 223 224 212 188 181 183 185 179 174 171 168 172 168 170 176 176 186 214 225 224 231 235 196 127 94 44 48 122 170 161 72 22 45 77 126 97 32 61
124 93 99 140 144 113 135 163 159 164 122 62 127 142 92 127 172 179 137 101 154 91 59 106 97 57 102 167 180 179 180 169 172 222 185 114 131 167 175 181 181 178 159 167 165 166 172 170 181 204 201 208 206 190 187 178 165 157 165 180 183 191 215 211 206 189 180 181 185 180 177 173 168 172 172 175 178 176 187 216 225 227 239 223 142 106 97 59 61 126 174 155 48 26 50 90 145 118 73 113
119 87 129 151 141 137 171 181 165 158 95 101 160 135 88 154 181 178 103 122 143 97 99 110 50 75 146 191 184 181 178 176 189 226 146 113 139 170 178 174 176 181 172 178 168 164 166 160 186 208 200 208 202 190 183 167 154 148 152 161 179 198 198 202 204 187 178 180 181 177 177 178 175 173 174 175 177 179 188 214 233 244 235 154 84 78 100 95 86 143 174 126 45 52 65 81 128 106 110 127
111 108 152 162 163 161 180 179 152 126 79 128 107 50 121 200 195 148 80 113 92 123 124 99 63 112 177 195 185 179 175 177 207 202 104 114 141 171 134 86 81 89 102 122 128 133 108 118 188 211 206 208 203 192 180 163 158 154 161 170 178 207 192 191 194 184 175 173 175 176 173 176 180 172 168 167 172 179 190 217 237 249 235 152 79 96 87 86 115 158 179 87 41 48 38 67 121 98 104 72
88 125 164 165 164 166 180 164 86 52 80 140 62 70 156 162 146 119 100 64 66 76 90 58 73 135 195 196 178 168 169 174 187 137 92 128 161 165 125 121 113 104 99 103 95 103 91 135 205 214 212 208 208 201 192 164 147 159 164 173 186 209 188 189 191 190 182 170 168 169 172 176 180 176 167 165 169 181 195 222 240 249 239 153 81 100 73 85 126 163 158 46 41 37 25 96 100 107 95 31
133 155 165 161 159 165 175 129 42 55 118 130 94 89 70 67 84 122 97 29 72 73 87 45 86 173 204 190 172 167 169 179 149 110 101 151 174 153 148 170 166 164 160 167 157 151 146 182 222 222 216 213 222 224 209 183 170 164 166 178 199 202 185 186 192 191 191 172 167 165 166 173 177 175 167 168 172 191 204 231 247 247 227 140 83 82 62 100 117 149 100 13 22 21 29 85 83 113 86 27
167 169 164 157 159 165 118 39 39 53 68 77 110 73 75 86 134 150 66 57 105 75 67 73 148 203 200 184 174 174 176 198 177 115 122 170 175 143 145 167 162 161 168 173 164 157 165 204 232 234 224 224 232 223 198 191 183 156 162 180 202 191 182 183 187 179 189 178 168 167 168 174 179 178 171 167 174 197 213 234 237 242 208 115 78 100 112 129 143 132 38 3 10 52 91 59 81 94 42 23
168 167 165 162 165 149 54 43 67 28 19 76 90 57 53 77 142 139 44 90 132 104 100 147 184 204 194 185 181 176 189 226 210 123 145 176 181 154 155 164 158 163 168 172 171 173 177 200 217 223 215 224 222 203 189 192 176 155 166 185 195 185 185 190 191 175 183 179 168 171 177 176 180 189 183 172 181 204 227 231 225 226 166 95 106 122 116 118 145 109 18 13 30 88 106 45 101 89 31 55
167 166 167 164 167 134 77 86 64 76 126 139 64 20 38 93 140 134 55 112 137 106 130 177 195 200 196 189 184 183 210 241 199 146 164 176 182 153 141 147 152 150 150 171 170 169 169 178 204 208 209 205 208 202 195 207 175 159 180 194 189 185 186 194 198 181 183 180 170 175 184 174 172 187 197 193 197 215 242 241 234 209 141 69 79 96 92 107 127 71 38 60 74 107 82 76 166 128 39 86
163 164 168 163 165 112 74 94 87 133 165 136 45 44 103 147 166 144 89 122 116 127 151 179 196 198 197 186 182 192 232 242 178 162 173 182 173 136 123 136 148 147 160 173 169 169 167 170 182 186 198 191 196 197 188 202 160 154 187 199 187 182 181 191 199 185 182 181 175 175 180 174 171 187 210 208 214 230 246 247 240 213 182 96 68 98 117 116 91 38 73 81 97 113 76 109 182 126 35 48
161 163 166 168 156 73 66 94 89 140 156 84 61 123 155 168 169 134 115 107 118 143 155 181 186 187 187 182 180 203 247 230 160 167 180 191 172 143 156 165 159 164 169 171 170 172 170 171 169 170 179 180 192 197 188 194 152 154 195 203 185 175 176 191 200 189 188 185 180 177 175 180 180 195 210 219 234 232 225 234 239 218 205 172 99 52 88 103 44 43 64 72 86 108 85 134 168 84 18 4
161 165 168 173 127 52 83 105 130 177 154 52 105 162 166 170 142 95 101 91 127 148 161 169 168 182 180 180 181 220 249 197 147 170 184 193 174 152 160 166 163 166 171 171 170 172 174 176 170 168 174 174 183 196 194 179 150 173 212 204 185 181 182 193 201 190 188 185 185 182 178 179 179 197 211 226 240 239 216 205 229 221 216 215 148 75 88 55 52 76 48 47 81 105 102 160 138 36 4 6
164 171 172 171 93 46 53 100 155 180 103 37 132 169 168 161 101 102 94 98 148 158 142 115 156 178 161 152 185 241 235 171 163 174 186 185 165 154 160 164 163 167 172 173 171 174 177 184 178 171 175 176 181 200 212 167 160 194 223 210 201 198 188 179 184 183 182 182 186 188 182 174 170 184 212 224 223 237 210 190 213 219 225 227 203 158 74 42 116 76 91 126 150 172 181 185 126 19 15 58
164 170 172 147 64 52 70 128 167 168 63 57 132 154 166 149 103 125 86 97 150 154 118 88 143 175 160 153 209 250 226 179 174 176 187 179 165 161 162 160 161 167 171 174 174 180 182 182 174 172 179 180 177 195 214 162 170 210 211 184 166 166 163 156 158 167 181 183 182 185 180 175 169 186 220 219 216 230 206 194 194 210 232 217 170 114 40 48 138 114 154 176 188 205 202 165 82 15 82 145
167 171 156 75 53 100 146 166 169 129 44 65 137 157 162 119 74 101 80 96 128 132 88 70 134 170 166 172 231 251 224 187 177 180 184 170 165 165 163 160 162 166 169 175 180 177 171 167 161 162 169 170 171 184 192 167 187 186 158 167 147 133 131 119 106 113 149 174 176 181 180 177 175 194 228 218 213 223 210 200 190 193 190 143 98 91 24 47 94 101 160 178 173 150 103 47 14 27 130 166
160 139 75 20 84 144 176 161 132 99 65 82 143 161 140 96 111 117 67 72 98 114 68 60 140 166 171 196 240 248 227 194 184 184 176 166 164 165 162 162 163 165 168 176 182 173 169 167 164 162 167 169 169 179 192 195 206 178 153 160 174 176 168 161 162 153 152 168 177 181 180 178 180 204 230 214 204 215 206 196 163 98 51 41 62 64 26 67 55 34 65 90 85 66 41 44 62 57 122 158
79 30 7 38 114 136 104 103 112 97 97 122 124 130 108 129 160 109 61 74 132 147 79 55 137 168 171 216 247 247 236 210 194 178 172 171 168 166 163 164 164 166 169 175 177 168 167 167 166 163 168 171 173 183 187 199 205 187 180 172 174 183 178 169 176 175 171 170 175 180 182 179 189 218 227 217 211 219 205 192 119 25 9 21 51 52 24 61 65 31 77 87 88 97 81 111 113 46 69 108
30 6 11 88 142 96 66 110 106 61 88 104 122 139 113 138 156 99 61 88 137 145 80 74 149 171 178 225 247 248 238 218 200 176 171 173 173 170 167 168 167 169 169 174 175 169 167 167 167 168 171 175 182 191 175 184 193 187 183 181 176 182 183 178 172 168 164 163 173 179 183 182 201 231 227 215 219 214 198 187 106 29 23 35 34 38 20 51 74 39 95 105 71 65 63 95 97 23 24 35
8 8 25 104 136 56 54 104 88 57 107 118 135 124 115 152 139 90 64 114 151 147 94 107 155 172 189 232 247 249 237 210 198 189 176 176 178 174 164 168 173 175 176 180 181 174 174 176 179 182 185 192 199 192 172 198 195 185 185 186 179 174 176 172 168 166 161 155 166 178 181 184 204 235 227 213 216 205 192 157 79 43 32 22 42 51 55 93 64 25 50 51 16 19 38 59 46 52 100 131
36 57 58 114 112 47 86 120 77 66 127 113 89 86 127 159 137 105 72 133 147 142 85 80 141 169 194 236 246 246 241 222 204 193 186 187 172 154 139 146 166 180 181 189 191 180 184 185 192 197 206 222 224 191 181 222 206 188 181 185 181 168 167 168 165 165 160 153 159 175 184 189 212 239 227 213 208 166 95 49 49 48 38 49 64 52 57 100 43 47 89 41 30 85 90 87 64 110 149 168
42 59 108 146 95 91 148 132 67 71 107 65 37 84 104 88 124 98 65 141 146 144 90 98 153 170 192 233 245 245 240 192 172 167 146 131 111 79 67 89 85 82 110 139 144 136 121 128 148 123 119 151 185 197 213 232 211 199 185 180 180 169 166 167 169 166 164 158 161 177 185 189 221 243 223 193 163 96 27 40 51 73 123 123 78 47 58 90 40 11 17 13 77 157 120 106 96 104 69 101
80 130 163 150 98 128 162 138 64 69 61 28 43 98 78 79 120 48 61 149 158 145 97 110 161 173 203 240 249 250 222 104 85 115 133 119 105 111 127 119 96 91 101 111 114 120 114 130 131 88 108 166 201 231 220 179 165 176 183 186 182 168 165 168 175 171 167 163 164 176 185 193 223 219 200 153 110 47 43 85 71 94 151 115 64 40 53 67 26 12 54 43 109 137 73 88 118 86 50 62
162 170 155 135 84 85 141 103 42 50 59 84 108 134 150 162 113 22 56 142 145 130 96 112 149 170 220 246 244 238 196 120 112 121 159 170 176 181 189 171 176 179 172 167 176 183 188 185 175 178 188 190 210 209 170 155 156 166 179 182 178 170 168 169 173 173 167 162 160 171 188 203 222 197 188 138 101 44 86 109 60 94 113 43 26 40 33 71 30 30 84 53 108 94 56 95 111 55 30 31
180 161 131 105 59 84 140 66 51 80 99 88 102 159 180 176 87 10 64 139 130 124 86 100 138 180 225 214 191 195 197 165 160 175 198 193 180 182 192 177 187 192 185 184 188 192 190 164 139 168 200 200 215 187 152 167 162 166 170 176 178 173 169 168 172 172 167 162 157 167 190 216 229 201 174 125 99 58 97 102 59 100 52 9 23 33 61 101 41 74 106 53 98 79 41 83 80 31 7 14
184 143 124 104 103 129 121 26 30 53 84 97 135 168 177 176 94 21 88 150 134 128 76 82 137 174 171 149 110 158 223 208 176 184 203 194 185 190 193 179 188 187 186 200 202 201 159 116 96 137 178 201 214 136 128 139 137 149 158 171 177 169 170 173 175 174 169 162 158 171 200 224 228 210 155 118 91 61 94 108 101 105 24 11 29 45 98 95 35 93 111 91 118 65 99 132 85 29 20 15
180 111 110 106 108 131 88 8 13 80 140 147 161 171 180 183 109 25 95 141 136 116 55 60 128 113 119 126 134 155 165 178 172 182 207 197 192 198 191 181 183 183 190 211 224 215 179 161 151 143 141 184 185 91 135 154 155 153 140 146 147 138 148 172 179 177 171 165 163 180 215 211 188 207 152 95 55 74 123 150 145 57 7 29 56 45 77 66 47 137 149 151 61 56 150 164 103 91 104 87
154 101 102 99 110 142 58 10 75 152 163 160 167 174 180 184 114 21 87 121 121 80 30 57 116 116 151 157 156 144 76 88 117 148 196 201 202 207 196 188 175 181 171 167 195 194 171 161 174 187 189 214 147 123 166 173 177 169 150 125 102 132 161 151 148 172 169 160 170 193 222 186 149 183 135 74 66 92 98 139 92 12 15 51 54 55 65 34 70 144 102 91 57 71 140 155 98 144 174 180
123 96 110 118 138 140 48 74 147 168 166 162 168 177 181 176 103 26 108 134 117 71 29 72 71 71 108 131 162 110 32 85 138 119 85 127 160 179 161 145 133 140 151 152 161 150 132 132 166 183 213 219 124 152 172 173 177 168 169 151 131 144 169 162 163 162 147 140 175 203 195 181 158 96 63 57 82 87 106 129 41 33 42 38 21 15 34 50 69 104 77 114 111 74 96 112 108 157 173 198
112 115 133 125 145 117 84 146 167 168 168 166 168 177 180 169 90 52 131 114 98 92 86 126 99 73 88 108 128 61 51 85 88 57 24 38 79 102 92 84 44 49 71 71 86 84 96 153 177 190 228 177 79 112 156 175 178 172 166 158 166 173 175 168 178 175 161 174 171 132 110 104 96 90 43 25 66 78 139 114 27 54 42 21 14 16 51 71 107 125 136 166 147 111 106 86 144 183 188 214
124 140 132 125 142 77 66 137 168 170 168 164 163 178 177 167 82 70 118 100 107 131 140 139 142 136 123 134 107 45 46 38 70 82 77 90 118 111 101 85 72 106 125 130 124 100 120 177 175 202 239 132 67 112 138 143 132 130 143 143 149 178 190 170 150 164 164 183 139 71 75 62 56 62 20 26 61 97 128 61 44 68 46 27 10 29 65 99 115 110 132 143 141 121 88 47 101 165 201 225
124 123 120 114 101 24 43 140 170 170 169 164 171 182 174 160 67 80 113 98 146 166 139 134 140 136 122 137 95 74 39 53 121 158 173 173 174 163 154 137 141 165 176 176 166 165 177 175 166 214 232 106 81 100 122 129 134 149 166 168 163 164 168 165 148 106 111 135 88 71 55 28 26 11 9 38 79 124 92 31 60 78 57 26 9 29 68 98 93 116 158 156 130 115 120 60 28 80 176 222
116 125 109 101 65 40 114 164 168 168 167 167 179 180 175 131 57 102 108 111 169 159 145 140 129 122 130 156 122 119 103 137 168 181 194 189 189 197 189 187 179 180 182 155 141 159 178 175 187 223 195 66 84 116 145 159 168 172 168 166 166 164 153 159 156 130 163 107 43 71 65 55 27 19 33 52 91 132 53 10 53 80 58 13 10 29 64 71 45 76 142 152 116 107 123 86 61 90 170 195
104 98 83 98 97 138 165 168 168 169 168 170 179 178 162 72 61 117 101 137 170 151 147 126 128 121 136 158 153 170 174 176 182 188 188 190 192 193 190 195 179 153 149 155 166 175 185 184 202 197 136 40 90 149 165 163 162 163 162 164 165 171 167 166 154 125 107 79 116 176 133 47 30 58 39 51 109 125 28 8 50 75 53 11 18 39 64 72 62 139 183 152 111 115 123 125 124 161 172 159
35 16 29 69 120 167 170 168 167 170 171 176 186 162 88 32 93 128 112 156 146 109 99 105 115 115 148 132 151 174 174 178 188 181 146 173 181 182 181 173 119 70 89 137 153 161 185 188 165 157 138 78 99 136 157 169 169 157 143 139 161 176 180 175 126 51 35 77 109 96 44 33 70 63 38 63 129 99 22 13 66 76 45 10 21 26 52 50 93 185 197 158 116 126 132 120 146 191 195 184
3 9 63 89 121 165 170 170 173 179 180 185 161 72 22 81 154 151 139 161 113 75 59 81 91 93 116 129 165 175 179 190 202 170 134 175 163 152 130 106 83 96 116 138 124 130 167 163 136 161 172 147 135 127 109 129 164 176 161 149 156 158 153 129 96 54 105 144 110 58 46 61 88 62 45 68 126 68 20 33 99 95 44 12 35 34 55 40 124 185 181 148 113 120 136 157 193 195 160 148
4 59 145 113 136 168 171 175 181 180 180 165 88 74 112 162 175 146 146 143 108 97 80 55 69 102 144 162 176 181 171 161 183 165 155 176 177 172 152 155 151 128 124 155 144 168 191 175 160 168 165 166 158 126 96 91 128 166 167 168 150 86 74 99 92 86 104 81 63 65 64 84 86 69 63 92 100 38 13 60 131 96 33 25 58 61 54 67 155 180 175 157 128 113 142 180 201 171 130 129
26 120 153 83 135 169 178 180 174 173 184 157 94 144 179 169 117 102 140 111 90 130 115 72 73 118 173 177 171 139 122 141 181 130 91 103 109 141 153 164 152 118 134 127 126 156 182 160 158 171 151 156 176 160 147 143 133 118 113 135 107 47 43 62 81 59 52 43 54 62 63 69 96 90 94 122 78 15 9 78 135 79 19 32 72 63 27 100 169 177 176 158 102 105 149 181 196 138 121 127
102 164 150 95 143 170 178 175 171 174 183 129 104 150 123 91 58 105 144 108 116 147 115 121 135 163 194 153 105 110 150 179 180 83 51 50 52 59 47 58 63 72 103 124 163 185 179 136 152 170 150 148 186 192 169 166 163 141 114 99 84 60 54 76 87 51 50 52 56 56 66 65 100 83 93 117 64 9 13 88 98 49 20 27 74 44 42 137 176 178 182 128 54 117 163 189 176 89 80 98
167 186 174 124 150 170 177 177 169 175 167 84 87 67 41 78 88 139 140 130 145 120 102 141 176 218 190 110 129 153 147 135 123 78 82 128 137 111 61 51 29 21 34 92 135 159 162 146 159 170 158 145 164 180 171 180 160 106 79 74 85 81 78 46 42 52 46 65 70 45 107 156 129 90 119 105 46 9 25 119 90 37 19 29 71 45 98 167 182 170 164 80 59 148 182 194 141 75 117 129
178 198 187 155 167 173 176 180 174 180 136 35 29 50 96 112 120 165 144 150 135 122 152 171 182 216 154 145 176 143 119 136 125 80 91 165 173 143 115 125 97 83 85 133 156 163 135 153 170 195 190 156 136 139 169 184 127 60 54 80 86 75 49 41 64 87 72 82 100 79 101 123 100 65 127 96 38 9 48 122 67 41 21 47 70 61 141 171 162 102 110 87 112 169 177 140 89 106 189 129
178 207 190 172 172 173 179 182 185 146 51 27 64 97 101 89 152 158 146 129 120 146 172 173 194 202 124 126 108 55 29 76 135 91 119 174 174 146 146 170 152 135 157 173 187 168 120 146 184 182 154 155 148 131 146 158 135 85 54 68 59 36 29 59 111 151 143 131 130 82 60 97 120 108 136 83 23 8 63 91 49 40 28 40 69 104 167 148 117 77 137 142 160 177 153 111 136 171 203 119
182 200 183 173 174 177 152 115 127 47 47 112 131 123 91 117 161 132 114 126 150 168 177 182 210 176 74 63 39 8 32 116 151 113 163 181 169 143 156 171 161 155 174 189 184 127 114 143 153 134 154 153 132 110 79 73 81 78 59 43 20 23 30 84 115 128 137 117 79 73 64 95 125 136 120 74 25 20 84 94 54 30 21 40 82 135 162 145 121 96 176 171 168 177 142 108 126 186 188 114
185 190 178 178 179 145 54 50 55 57 133 158 148 120 122 158 126 75 119 161 171 175 180 189 213 126 49 69 36 26 117 186 154 129 170 179 171 159 174 173 172 171 176 188 149 117 137 159 131 136 149 150 112 72 70 77 67 62 38 27 42 62 91 136 148 139 116 96 67 95 87 146 151 124 103 58 29 37 107 104 47 22 24 58 92 133 137 135 92 110 185 167 167 164 124 109 117 187 155 125
184 180 176 175 131 47 42 108 109 144 153 150 123 120 145 157 111 92 157 175 172 177 182 193 190 74 50 77 49 93 174 191 164 148 170 176 174 173 177 172 175 167 166 161 128 140 144 147 142 138 106 94 58 52 79 94 63 49 42 87 138 147 160 164 170 144 104 119 97 133 129 160 175 173 153 68 40 47 102 85 38 22 18 39 62 98 71 72 65 138 143 146 180 132 124 147 154 185 125 134
180 169 161 119 62 69 121 156 168 164 150 146 123 146 162 138 103 132 172 174 173 178 182 198 140 48 97 142 150 174 188 193 174 160 170 174 172 176 173 167 167 169 176 152 122 145 151 167 158 112 55 46 56 71 88 75 53 39 46 126 165 164 156 131 121 108 104 100 116 163 176 179 177 192 171 79 49 58 112 67 42 34 10 13 57 98 69 40 85 124 92 124 148 146 154 148 140 114 71 54
177 123 90 121 133 157 173 174 177 169 162 147 143 156 153 114 94 152 175 176 176 177 185 197 98 59 134 176 183 188 188 194 178 168 170 176 175 175 170 168 169 174 180 145 137 165 163 137 78 53 56 66 66 60 42 48 58 43 56 145 171 154 116 93 89 121 159 141 139 181 188 187 161 164 141 79 54 56 103 50 38 34 20 33 61 67 56 60 89 115 131 143 164 180 181 165 135 93 80 54
172 76 104 165 152 179 178 175 177 173 160 140 143 138 135 96 116 165 178 178 178 177 190 183 92 111 170 178 180 190 195 199 175 169 171 174 174 171 169 172 171 177 176 140 152 142 96 57 48 38 56 66 48 51 55 56 68 61 82 145 178 160 156 162 163 162 170 160 163 184 180 131 102 143 115 68 53 70 101 43 29 46 61 69 67 58 55 75 109 159 161 163 182 184 183 182 176 160 157 127
